<?xml version="1.0" encoding="utf-8"?>
<svg viewBox="6.584 9.131 480.007 478.771" width="480.007" height="478.771" xmlns="http://www.w3.org/2000/svg">
  <defs>
    <radialGradient gradientUnits="userSpaceOnUse" cx="246.588" cy="248.517" r="240.004" id="gradient-0" spreadMethod="pad">
      <stop offset="0" style="stop-color: rgba(255, 133, 26, 1)"/>
      <stop offset="1" style="stop-color: rgba(179, 84, 0, 1)"/>
    </radialGradient>
  </defs>
  <path d="M 113.334 210.23 L 7.784 356.001 C 4.705 360.678 7.884 366.755 13.715 367.353 L 221.974 387.991 L 113.334 210.23 Z M 13.995 304.086 L 89.284 189.677 L 12.645 146.682 C 9.975 145.186 6.584 146.981 6.584 149.889 L 6.584 302.131 C 6.584 305.899 11.875 307.302 13.995 304.086 Z M 24.834 405.235 L 219.235 487.204 C 224.534 489.495 230.585 485.867 230.585 480.415 L 230.585 419.008 L 27.035 398.155 C 22.585 397.688 20.804 403.383 24.834 405.235 Z M 106.054 164.187 L 185.984 30.525 C 190.324 23.924 182.394 16.264 175.205 20.108 L 24.394 112.317 C 21.925 113.832 22.004 117.236 24.524 118.657 L 106.054 164.187 Z M 246.584 173.706 L 355.794 173.706 L 260.215 16.255 C 257.084 11.505 251.835 9.131 246.584 9.131 C 241.334 9.131 236.084 11.505 232.954 16.255 L 137.375 173.706 L 246.584 173.706 Z M 480.524 146.682 L 403.884 189.686 L 479.174 304.095 C 481.284 307.312 486.585 305.909 486.585 302.131 L 486.585 149.889 C 486.585 146.981 483.194 145.186 480.524 146.682 Z M 387.115 164.187 L 468.645 118.648 C 471.174 117.226 471.245 113.823 468.774 112.308 L 317.964 20.108 C 310.774 16.264 302.844 23.924 307.184 30.525 L 387.115 164.187 Z M 466.135 398.155 L 262.584 418.999 L 262.584 480.407 C 262.584 485.867 268.635 489.486 273.934 487.195 L 468.334 405.225 C 472.364 403.383 470.584 397.688 466.135 398.155 Z M 379.835 210.23 L 271.204 387.991 L 479.465 367.353 C 485.294 366.746 488.475 360.678 485.394 356.001 L 379.835 210.23 Z M 246.584 203.629 L 146.154 203.629 L 246.584 367.971 L 347.014 203.629 L 246.584 203.629 Z" style="fill: url(#gradient-0);"/>
</svg>